<?xml version="1.0" encoding="UTF-8"?>
<svg width="23px" height="25px" viewBox="0 0 23 25" version="1.1" xmlns="http://www.w3.org/2000/svg" xmlns:xlink="http://www.w3.org/1999/xlink">
    <!-- Generator: Sketch 48.2 (47327) - http://www.bohemiancoding.com/sketch -->
    <title>draw icon@1x</title>
    <desc>Created with Sketch.</desc>
    <defs></defs>
    <g id="Desktop" stroke="none" stroke-width="1" fill="none" fill-rule="evenodd" transform="translate(-417.000000, -1295.000000)">
        <g id="Expired-Pre-Game" transform="translate(392.000000, 672.000000)">
            <g id="match-4" transform="translate(8.000000, 560.000000)">
                <g id="pred-1" transform="translate(0.000000, 56.000000)">
                    <g id="draw-icon" transform="translate(16.000000, 7.000000)">
                        <g id="Group-6" transform="translate(0.500000, 0.000000)" fill="#9A9A9A">
                            <path d="M12,16 C7.581722,16 4,12.418278 4,8 C4,3.581722 7.581722,0 12,0 C16.418278,0 20,3.581722 20,8 C20,12.418278 16.418278,16 12,16 Z M7,7 C6.44771525,7 6,7.44771525 6,8 C6,8.55228475 6.44771525,9 7,9 L17,9 C17.5522847,9 18,8.55228475 18,8 C18,7.44771525 17.5522847,7 17,7 L7,7 Z" id="Combined-Shape"></path>
                            <text id="DRAW" font-family="Roboto-Bold, Roboto" font-size="8" font-weight="bold">
                                <tspan x="0.158203125" y="25">DRAW</tspan>
                            </text>
                        </g>
                        <g id="Group-12" transform="translate(1.000000, 18.000000)"></g>
                    </g>
                </g>
            </g>
        </g>
    </g>
</svg>